<?xml version="1.0" encoding="utf-8"?>
<!-- Generator: Adobe Illustrator 22.0.1, SVG Export Plug-In . SVG Version: 6.00 Build 0)  -->
<svg version="1.1" id="Layer_1" xmlns="http://www.w3.org/2000/svg" xmlns:xlink="http://www.w3.org/1999/xlink" x="0px" y="0px"
	 viewBox="0 0 198 68" style="enable-background:new 0 0 198 68;" xml:space="preserve">
<style type="text/css">
	.st0{fill:#FFFFFF;}
</style>
<g>
	<path d="M26.8,43.8h-7.2V43c0.3,0,0.6,0,1-0.1c0.4,0,0.7-0.1,0.8-0.2c0.2-0.1,0.4-0.3,0.5-0.5c0.1-0.2,0.2-0.4,0.2-0.7V29.7H22
		l-5.5,13.9h-0.6l-5.3-14.1h-0.1v9.7c0,0.9,0.1,1.7,0.2,2.1c0.1,0.5,0.3,0.8,0.5,1.1c0.2,0.2,0.5,0.3,1,0.5c0.5,0.1,0.9,0.2,1,0.2
		v0.8H6.7V43c0.3,0,0.7-0.1,1.1-0.2c0.4-0.1,0.7-0.2,0.9-0.4c0.3-0.2,0.5-0.5,0.6-1c0.1-0.4,0.1-1.2,0.1-2.2v-8.3
		c0-0.5-0.1-0.9-0.2-1.2c-0.1-0.3-0.3-0.6-0.5-0.7c-0.2-0.2-0.5-0.4-0.9-0.5c-0.3-0.1-0.7-0.2-1-0.2v-0.8h5.5L17,39.8l4-10.2
		c0.1-0.4,0.3-0.8,0.4-1.2c0.1-0.4,0.2-0.7,0.2-0.8h5.3v0.8c-0.2,0-0.5,0-0.8,0.1c-0.3,0.1-0.6,0.1-0.7,0.2
		c-0.3,0.1-0.4,0.2-0.5,0.5c-0.1,0.2-0.1,0.4-0.1,0.7v11.7c0,0.3,0,0.5,0.1,0.7c0.1,0.2,0.3,0.3,0.5,0.5c0.1,0.1,0.4,0.1,0.7,0.2
		c0.4,0.1,0.6,0.1,0.8,0.1V43.8z"/>
	<path d="M39.4,43.6c-0.4,0.1-0.7,0.2-0.9,0.3C38.2,44,37.9,44,37.6,44c-0.6,0-1.1-0.1-1.4-0.4c-0.4-0.3-0.6-0.7-0.7-1.2h-0.1
		c-0.5,0.6-1,1-1.6,1.3c-0.6,0.3-1.3,0.4-2.1,0.4c-0.8,0-1.5-0.3-2.1-0.8c-0.5-0.5-0.8-1.2-0.8-2c0-0.4,0.1-0.8,0.2-1.2
		c0.1-0.3,0.3-0.7,0.6-0.9c0.2-0.2,0.4-0.4,0.8-0.6c0.3-0.2,0.6-0.3,0.9-0.4c0.3-0.1,1-0.4,2.1-0.7c1.1-0.4,1.8-0.6,2.1-0.8v-1.1
		c0-0.1,0-0.3-0.1-0.6c0-0.3-0.1-0.6-0.3-0.8c-0.2-0.3-0.4-0.5-0.6-0.7c-0.3-0.2-0.7-0.3-1.2-0.3c-0.4,0-0.7,0.1-1,0.2
		c-0.3,0.1-0.5,0.2-0.6,0.4c0,0.2,0,0.4,0.1,0.7c0.1,0.3,0.1,0.6,0.1,0.8c0,0.3-0.1,0.5-0.4,0.7c-0.2,0.2-0.6,0.3-1,0.3
		c-0.4,0-0.7-0.1-0.8-0.4c-0.2-0.3-0.3-0.6-0.3-0.9c0-0.4,0.1-0.7,0.4-1c0.2-0.3,0.6-0.6,1-0.9c0.3-0.2,0.8-0.4,1.2-0.5
		c0.5-0.1,1-0.2,1.4-0.2c0.6,0,1.2,0,1.7,0.1c0.5,0.1,0.9,0.3,1.3,0.6c0.4,0.3,0.7,0.7,0.9,1.2c0.2,0.5,0.3,1.1,0.3,1.9
		c0,1.1,0,2.1,0,2.9c0,0.8,0,1.8,0,2.8c0,0.3,0.1,0.5,0.2,0.7c0.1,0.2,0.3,0.3,0.5,0.4c0.1,0.1,0.3,0.1,0.5,0.1c0.2,0,0.5,0,0.8,0
		V43.6z M35.4,37.6c-0.6,0.2-1.2,0.4-1.7,0.6c-0.5,0.2-0.9,0.4-1.4,0.7c-0.4,0.3-0.7,0.6-0.9,0.9c-0.2,0.4-0.3,0.8-0.3,1.3
		c0,0.6,0.2,1.1,0.5,1.4c0.3,0.3,0.8,0.4,1.3,0.4c0.5,0,1-0.1,1.4-0.4c0.4-0.3,0.8-0.6,1-0.9L35.4,37.6z"/>
	<path d="M46,43.8h-5.5v-0.8c0.2,0,0.4,0,0.5,0c0.2,0,0.3,0,0.5-0.1c0.2-0.1,0.4-0.2,0.5-0.4c0.1-0.2,0.2-0.4,0.2-0.7v-7
		c0-0.2-0.1-0.5-0.2-0.7c-0.1-0.2-0.3-0.4-0.5-0.5c-0.1-0.1-0.4-0.2-0.6-0.2c-0.3-0.1-0.5-0.1-0.8-0.1v-0.8l4-0.3l0.2,0.2v9.2
		c0,0.3,0.1,0.5,0.2,0.7c0.1,0.2,0.3,0.3,0.5,0.4c0.2,0.1,0.3,0.1,0.5,0.2c0.2,0,0.3,0.1,0.5,0.1V43.8z M44.6,27.9
		c0,0.4-0.1,0.8-0.4,1.1c-0.3,0.3-0.6,0.5-1.1,0.5c-0.4,0-0.7-0.2-1-0.5c-0.3-0.3-0.4-0.7-0.4-1.1c0-0.4,0.1-0.8,0.4-1.1
		c0.3-0.3,0.6-0.5,1-0.5c0.4,0,0.8,0.1,1.1,0.4C44.4,27.2,44.6,27.5,44.6,27.9z"/>
	<path d="M54.9,38.3c0.3,0.3,0.6,0.6,0.7,1c0.2,0.4,0.3,0.8,0.3,1.3c0,1-0.4,1.9-1.2,2.6c-0.8,0.7-1.8,1-3,1c-0.7,0-1.3-0.1-1.8-0.4
		c-0.6-0.2-0.9-0.5-1.2-0.7l-0.2,0.7h-0.9l-0.1-3.9h0.8c0.1,0.3,0.2,0.6,0.4,1c0.2,0.4,0.4,0.8,0.7,1.1c0.3,0.3,0.7,0.6,1.1,0.9
		c0.4,0.2,0.9,0.3,1.4,0.3c0.7,0,1.3-0.2,1.7-0.5c0.4-0.3,0.6-0.8,0.6-1.4c0-0.3-0.1-0.6-0.2-0.8c-0.1-0.2-0.3-0.4-0.6-0.6
		c-0.3-0.2-0.6-0.3-0.9-0.5c-0.4-0.1-0.8-0.3-1.2-0.4c-0.4-0.1-0.8-0.3-1.2-0.4c-0.4-0.2-0.8-0.4-1.1-0.7c-0.3-0.3-0.6-0.6-0.8-1
		c-0.2-0.4-0.3-0.8-0.3-1.4c0-0.9,0.3-1.7,1-2.3c0.7-0.6,1.6-1,2.8-1c0.4,0,0.9,0.1,1.4,0.2c0.5,0.1,0.8,0.3,1.1,0.4l0.3-0.6h0.8
		l0.2,3.6h-0.8c-0.2-0.8-0.5-1.5-1-2c-0.5-0.5-1.2-0.8-1.9-0.8c-0.6,0-1.1,0.2-1.5,0.5c-0.4,0.3-0.5,0.7-0.5,1.1
		c0,0.3,0.1,0.6,0.2,0.9c0.1,0.2,0.3,0.4,0.5,0.6c0.2,0.2,0.5,0.3,0.9,0.4c0.3,0.1,0.8,0.3,1.3,0.5c0.5,0.2,1,0.3,1.4,0.6
		C54.2,37.8,54.6,38,54.9,38.3z"/>
	<path d="M68.6,38c0,0.8-0.1,1.6-0.4,2.3c-0.3,0.8-0.6,1.4-1.1,2c-0.5,0.6-1.1,1.1-1.8,1.4c-0.7,0.3-1.5,0.4-2.3,0.4
		c-0.7,0-1.4-0.1-2.1-0.4c-0.7-0.3-1.2-0.7-1.7-1.2c-0.5-0.5-0.9-1.1-1.2-1.9c-0.3-0.7-0.4-1.6-0.4-2.5c0-1.8,0.5-3.2,1.5-4.3
		c1-1.1,2.4-1.7,4-1.7c1.6,0,2.9,0.5,3.9,1.6C68.1,34.9,68.6,36.3,68.6,38z M66.2,38.1c0-0.6-0.1-1.2-0.2-1.8
		c-0.1-0.6-0.3-1.2-0.5-1.6c-0.2-0.5-0.6-0.9-1-1.1c-0.4-0.3-0.9-0.4-1.5-0.4c-0.6,0-1.1,0.1-1.5,0.4c-0.4,0.3-0.8,0.7-1,1.2
		c-0.2,0.5-0.4,1-0.5,1.6c-0.1,0.6-0.1,1.2-0.1,1.7c0,0.7,0.1,1.4,0.2,2c0.1,0.6,0.3,1.2,0.6,1.7c0.3,0.5,0.6,0.9,1,1.2
		c0.4,0.3,0.9,0.4,1.5,0.4c1,0,1.7-0.5,2.3-1.4C65.9,41,66.2,39.7,66.2,38.1z"/>
	<path d="M82.7,43.8h-5.5v-0.8c0.2,0,0.4,0,0.6,0c0.2,0,0.4,0,0.5-0.1c0.2-0.1,0.4-0.2,0.5-0.4c0.1-0.2,0.2-0.4,0.2-0.7v-5.8
		c0-0.8-0.2-1.4-0.6-1.9c-0.4-0.4-0.8-0.7-1.4-0.7c-0.4,0-0.8,0.1-1.1,0.2c-0.3,0.1-0.6,0.3-0.9,0.5c-0.3,0.2-0.5,0.4-0.6,0.6
		c-0.1,0.2-0.3,0.4-0.3,0.5v6.5c0,0.3,0.1,0.5,0.2,0.6c0.1,0.2,0.3,0.3,0.5,0.4c0.2,0.1,0.3,0.1,0.5,0.2c0.2,0,0.4,0.1,0.6,0.1v0.8
		h-5.5v-0.8c0.2,0,0.4,0,0.5,0c0.2,0,0.3,0,0.5-0.1c0.2-0.1,0.4-0.2,0.5-0.4c0.1-0.2,0.2-0.4,0.2-0.7v-7c0-0.3-0.1-0.5-0.2-0.7
		c-0.1-0.2-0.3-0.4-0.5-0.5c-0.1-0.1-0.3-0.2-0.5-0.2c-0.2,0-0.4-0.1-0.6-0.1v-0.8l3.8-0.3l0.2,0.2v1.6h0.1c0.2-0.2,0.4-0.4,0.7-0.7
		c0.3-0.3,0.5-0.5,0.8-0.6c0.3-0.2,0.6-0.3,1-0.5c0.4-0.1,0.8-0.2,1.3-0.2c1.1,0,1.9,0.3,2.4,1c0.5,0.7,0.8,1.6,0.8,2.7v5.9
		c0,0.3,0,0.5,0.1,0.6c0.1,0.2,0.2,0.3,0.5,0.4c0.2,0.1,0.3,0.1,0.5,0.2c0.1,0,0.3,0.1,0.6,0.1V43.8z"/>
	<path d="M101,43.6l-4,0.3l-0.2-0.2v-1.1l-0.1,0c-0.4,0.4-0.9,0.8-1.5,1.1c-0.6,0.3-1.2,0.4-1.8,0.4c-0.6,0-1.3-0.1-1.9-0.4
		c-0.6-0.3-1.1-0.7-1.6-1.2c-0.4-0.5-0.8-1.2-1.1-1.9c-0.3-0.7-0.4-1.6-0.4-2.5c0-0.8,0.1-1.6,0.4-2.3c0.3-0.7,0.7-1.4,1.2-1.9
		c0.5-0.5,1-0.9,1.7-1.2c0.7-0.3,1.4-0.5,2.1-0.5c0.5,0,1,0.1,1.6,0.2c0.5,0.1,0.9,0.3,1.3,0.5V29c0-0.3-0.1-0.6-0.2-0.9
		c-0.1-0.3-0.3-0.5-0.4-0.6c-0.2-0.1-0.5-0.3-0.9-0.3c-0.4-0.1-0.8-0.1-1.2-0.1v-0.7l4.6-0.3l0.2,0.2v15.2c0,0.3,0.1,0.5,0.2,0.7
		c0.1,0.2,0.3,0.3,0.5,0.5c0.1,0.1,0.4,0.1,0.6,0.2c0.3,0,0.5,0,0.8,0V43.6z M96.9,41.6V35c-0.1-0.2-0.2-0.4-0.3-0.6
		c-0.1-0.2-0.3-0.4-0.5-0.6c-0.2-0.2-0.5-0.3-0.8-0.5c-0.3-0.1-0.6-0.2-1-0.2c-0.5,0-0.9,0.1-1.3,0.4c-0.4,0.2-0.7,0.6-1,1
		c-0.3,0.4-0.5,1-0.7,1.6c-0.2,0.7-0.2,1.4-0.2,2.2c0,0.6,0.1,1.2,0.2,1.7c0.1,0.5,0.3,1,0.6,1.5c0.3,0.4,0.6,0.8,1,1
		c0.4,0.3,0.9,0.4,1.5,0.4c0.6,0,1.1-0.1,1.5-0.4C96.2,42.2,96.6,41.9,96.9,41.6z"/>
	<path d="M112.1,41.2c-0.5,0.9-1.1,1.6-1.9,2.2c-0.8,0.5-1.7,0.8-2.7,0.8c-0.9,0-1.7-0.2-2.4-0.5c-0.7-0.3-1.2-0.8-1.7-1.3
		c-0.4-0.6-0.8-1.2-1-1.9c-0.2-0.7-0.3-1.5-0.3-2.3c0-0.7,0.1-1.5,0.3-2.2c0.2-0.7,0.6-1.3,1-1.9c0.4-0.5,1-1,1.6-1.3
		c0.6-0.3,1.4-0.5,2.2-0.5c0.8,0,1.5,0.1,2.1,0.4c0.6,0.3,1.1,0.6,1.4,1.1c0.4,0.4,0.6,0.9,0.8,1.5c0.2,0.6,0.3,1.2,0.3,1.9v0.8
		h-7.5c0,0.7,0.1,1.4,0.2,2c0.1,0.6,0.4,1.1,0.7,1.6c0.3,0.4,0.7,0.8,1.2,1.1c0.5,0.3,1.1,0.4,1.7,0.4c0.7,0,1.3-0.2,1.8-0.5
		c0.5-0.3,1-0.9,1.4-1.7L112.1,41.2z M109.6,36.8c0-0.4,0-0.9-0.1-1.4c-0.1-0.5-0.2-0.9-0.3-1.2c-0.2-0.3-0.4-0.6-0.7-0.9
		c-0.3-0.2-0.7-0.3-1.2-0.3c-0.8,0-1.5,0.3-2,1c-0.5,0.7-0.8,1.6-0.9,2.8H109.6z"/>
</g>
<g>
	<path d="M181.9,44.2h-7.2v-0.8c0.3,0,0.6,0,1-0.1c0.4,0,0.7-0.1,0.8-0.2c0.2-0.1,0.4-0.3,0.5-0.5c0.1-0.2,0.2-0.4,0.2-0.7V30.1
		h-0.2l-5.5,13.9H171l-5.3-14.1h-0.1v9.7c0,0.9,0.1,1.7,0.2,2.1c0.1,0.5,0.3,0.8,0.5,1.1c0.2,0.2,0.5,0.3,1,0.5
		c0.5,0.1,0.9,0.2,1,0.2v0.8h-6.6v-0.8c0.3,0,0.7-0.1,1.1-0.2c0.4-0.1,0.7-0.2,0.9-0.4c0.3-0.2,0.5-0.5,0.6-1
		c0.1-0.4,0.1-1.2,0.1-2.2v-8.3c0-0.5-0.1-0.9-0.2-1.2c-0.1-0.3-0.3-0.6-0.5-0.7c-0.2-0.2-0.5-0.4-0.9-0.5c-0.3-0.1-0.7-0.2-1-0.2
		v-0.8h5.5l4.7,12.2l4-10.2c0.1-0.4,0.3-0.8,0.4-1.2c0.1-0.4,0.2-0.7,0.2-0.8h5.3v0.8c-0.2,0-0.5,0-0.8,0.1
		c-0.3,0.1-0.6,0.1-0.7,0.2c-0.3,0.1-0.4,0.2-0.5,0.5c-0.1,0.2-0.1,0.4-0.1,0.7v11.7c0,0.3,0,0.5,0.1,0.7c0.1,0.2,0.3,0.3,0.5,0.5
		c0.1,0.1,0.4,0.1,0.7,0.2c0.4,0.1,0.6,0.1,0.8,0.1V44.2z"/>
	<path d="M192.6,44.2h-7.3v-0.8c0.2,0,0.5,0,0.9-0.1c0.4,0,0.7-0.1,0.8-0.1c0.3-0.1,0.4-0.2,0.6-0.4c0.1-0.2,0.2-0.4,0.2-0.7V30.3
		c0-0.3,0-0.5-0.1-0.7c-0.1-0.2-0.3-0.3-0.6-0.5c-0.2-0.1-0.5-0.2-0.9-0.3c-0.3-0.1-0.6-0.1-0.9-0.1v-0.8h7.3v0.8
		c-0.2,0-0.5,0-0.8,0.1c-0.3,0-0.6,0.1-0.9,0.2c-0.3,0.1-0.5,0.2-0.6,0.4c-0.1,0.2-0.1,0.4-0.1,0.7v11.8c0,0.3,0.1,0.5,0.2,0.7
		c0.1,0.2,0.3,0.3,0.6,0.5c0.2,0.1,0.4,0.1,0.8,0.2c0.4,0.1,0.7,0.1,0.9,0.1V44.2z"/>
</g>
<g>
	<path d="M137.7,61.2v-0.3c-5.3,0-10.1-2.8-13.7-7.5c-3.5-4.6-5.7-11-5.7-18.1c0-7.1,2.2-13.5,5.7-18.1c3.5-4.6,8.4-7.5,13.7-7.5
		c5.3,0,10.1,2.8,13.7,7.5c3.5,4.6,5.7,11,5.7,18.1c0,7.1-2.2,13.5-5.7,18.1c-3.5,4.6-8.3,7.5-13.7,7.5V61.2v0.3
		c5.5,0,10.5-3,14.1-7.7c3.6-4.7,5.8-11.3,5.8-18.5c0-7.2-2.2-13.7-5.8-18.5c-3.6-4.7-8.6-7.7-14.1-7.7c-5.5,0-10.5,3-14.1,7.7
		c-3.6,4.7-5.8,11.3-5.8,18.5c0,7.2,2.2,13.7,5.8,18.5c3.6,4.7,8.6,7.7,14.1,7.7V61.2z"/>
	<path d="M119.1,35.3h0.1c0-6.8,2.1-13,5.4-17.5c3.3-4.5,8-7.2,13-7.2c5.1,0,9.7,2.7,13,7.2c3.3,4.5,5.4,10.6,5.4,17.5
		c0,6.8-2.1,13-5.4,17.5c-3.3,4.5-8,7.2-13,7.2c-5.1,0-9.7-2.7-13-7.2c-3.3-4.5-5.4-10.6-5.4-17.5H119.1H119
		c0,6.9,2.1,13.1,5.5,17.6c3.4,4.5,8.1,7.3,13.3,7.3c5.2,0,9.9-2.8,13.3-7.3c3.4-4.5,5.5-10.8,5.5-17.6c0-6.9-2.1-13.1-5.5-17.6
		c-3.4-4.5-8.1-7.3-13.3-7.3c-5.2,0-9.9,2.8-13.3,7.3c-3.4,4.5-5.5,10.8-5.5,17.6H119.1z"/>
	<circle cx="136" cy="11.7" r="0.3"/>
	<path d="M134,12.1c0,0.1,0.1,0.3,0.3,0.3c0.1,0,0.3-0.1,0.3-0.3c0-0.1-0.1-0.3-0.3-0.3C134.1,11.8,134,11.9,134,12.1z"/>
	<path d="M132.2,12.6c0,0.1,0.1,0.3,0.3,0.3s0.3-0.1,0.3-0.3s-0.1-0.3-0.3-0.3S132.2,12.5,132.2,12.6z"/>
	<path d="M130.6,13.4c0,0.1,0.1,0.3,0.3,0.3c0.1,0,0.3-0.1,0.3-0.3c0-0.1-0.1-0.3-0.3-0.3C130.7,13.2,130.6,13.3,130.6,13.4z"/>
	<circle cx="129.4" cy="14.4" r="0.3"/>
	<path d="M127.7,15.6c0,0.1,0.1,0.3,0.3,0.3c0.1,0,0.3-0.1,0.3-0.3s-0.1-0.3-0.3-0.3C127.8,15.3,127.7,15.4,127.7,15.6z"/>
	<path d="M126.5,16.8c0,0.1,0.1,0.3,0.3,0.3c0.1,0,0.3-0.1,0.3-0.3c0-0.1-0.1-0.3-0.3-0.3C126.6,16.6,126.5,16.7,126.5,16.8z"/>
	<path d="M125.3,18.2c0,0.1,0.1,0.3,0.3,0.3c0.1,0,0.3-0.1,0.3-0.3c0-0.1-0.1-0.3-0.3-0.3C125.4,18,125.3,18.1,125.3,18.2z"/>
	<path d="M124.3,19.7c0,0.1,0.1,0.3,0.3,0.3s0.3-0.1,0.3-0.3s-0.1-0.3-0.3-0.3S124.3,19.5,124.3,19.7z"/>
	<path d="M123.3,21.3c0,0.1,0.1,0.3,0.3,0.3c0.1,0,0.3-0.1,0.3-0.3s-0.1-0.3-0.3-0.3C123.4,21,123.3,21.1,123.3,21.3z"/>
	<path d="M122.5,23c0,0.1,0.1,0.3,0.3,0.3c0.1,0,0.3-0.1,0.3-0.3c0-0.1-0.1-0.3-0.3-0.3C122.6,22.7,122.5,22.8,122.5,23z"/>
	<path d="M121.9,24.5c0,0.1,0.1,0.3,0.3,0.3c0.1,0,0.3-0.1,0.3-0.3c0-0.1-0.1-0.3-0.3-0.3C122,24.2,121.9,24.3,121.9,24.5z"/>
	<path d="M121.3,26c0,0.1,0.1,0.3,0.3,0.3c0.1,0,0.3-0.1,0.3-0.3c0-0.1-0.1-0.3-0.3-0.3C121.4,25.7,121.3,25.9,121.3,26z"/>
	<path d="M120.9,27.6c0,0.1,0.1,0.3,0.3,0.3c0.1,0,0.3-0.1,0.3-0.3c0-0.1-0.1-0.3-0.3-0.3C121,27.3,120.9,27.5,120.9,27.6z"/>
	<path d="M120.5,29.2c0,0.1,0.1,0.3,0.3,0.3c0.1,0,0.3-0.1,0.3-0.3c0-0.1-0.1-0.3-0.3-0.3C120.6,28.9,120.5,29.1,120.5,29.2z"/>
	<path d="M120.3,30.7c0,0.1,0.1,0.3,0.3,0.3c0.1,0,0.3-0.1,0.3-0.3c0-0.1-0.1-0.3-0.3-0.3C120.4,30.5,120.3,30.6,120.3,30.7z"/>
	<path d="M120.1,32.2c0,0.1,0.1,0.3,0.3,0.3c0.1,0,0.3-0.1,0.3-0.3c0-0.1-0.1-0.3-0.3-0.3C120.2,31.9,120.1,32,120.1,32.2z"/>
	<path d="M120,33.7c0,0.1,0.1,0.3,0.3,0.3c0.1,0,0.3-0.1,0.3-0.3c0-0.1-0.1-0.3-0.3-0.3C120.1,33.5,120,33.6,120,33.7z"/>
	<path d="M120,35.2c0,0.1,0.1,0.3,0.3,0.3c0.1,0,0.3-0.1,0.3-0.3c0-0.1-0.1-0.3-0.3-0.3C120.1,35,120,35.1,120,35.2z"/>
	<path d="M138,11.6c0,0.1-0.1,0.3-0.3,0.3c-0.1,0-0.3-0.1-0.3-0.3c0-0.1,0.1-0.3,0.3-0.3C137.9,11.3,138,11.4,138,11.6z"/>
	<circle cx="139.5" cy="11.7" r="0.3"/>
	<path d="M141.5,12.1c0,0.1-0.1,0.3-0.3,0.3s-0.3-0.1-0.3-0.3c0-0.1,0.1-0.3,0.3-0.3S141.5,11.9,141.5,12.1z"/>
	<path d="M143.2,12.6c0,0.1-0.1,0.3-0.3,0.3c-0.1,0-0.3-0.1-0.3-0.3s0.1-0.3,0.3-0.3C143.1,12.4,143.2,12.5,143.2,12.6z"/>
	<path d="M144.8,13.4c0,0.1-0.1,0.3-0.3,0.3s-0.3-0.1-0.3-0.3c0-0.1,0.1-0.3,0.3-0.3S144.8,13.3,144.8,13.4z"/>
	<path d="M146.3,14.4c0,0.1-0.1,0.3-0.3,0.3c-0.1,0-0.3-0.1-0.3-0.3s0.1-0.3,0.3-0.3C146.2,14.2,146.3,14.3,146.3,14.4z"/>
	<path d="M147.7,15.6c0,0.1-0.1,0.3-0.3,0.3c-0.1,0-0.3-0.1-0.3-0.3s0.1-0.3,0.3-0.3C147.6,15.3,147.7,15.4,147.7,15.6z"/>
	<path d="M149,16.8c0,0.1-0.1,0.3-0.3,0.3c-0.1,0-0.3-0.1-0.3-0.3c0-0.1,0.1-0.3,0.3-0.3C148.9,16.6,149,16.7,149,16.8z"/>
	<path d="M150.2,18.2c0,0.1-0.1,0.3-0.3,0.3c-0.1,0-0.3-0.1-0.3-0.3c0-0.1,0.1-0.3,0.3-0.3C150.1,18,150.2,18.1,150.2,18.2z"/>
	<path d="M151.2,19.7c0,0.1-0.1,0.3-0.3,0.3c-0.1,0-0.3-0.1-0.3-0.3s0.1-0.3,0.3-0.3C151,19.4,151.2,19.5,151.2,19.7z"/>
	<path d="M152.1,21.3c0,0.1-0.1,0.3-0.3,0.3c-0.1,0-0.3-0.1-0.3-0.3s0.1-0.3,0.3-0.3C152,21,152.1,21.1,152.1,21.3z"/>
	<path d="M153,23c0,0.1-0.1,0.3-0.3,0.3c-0.1,0-0.3-0.1-0.3-0.3c0-0.1,0.1-0.3,0.3-0.3C152.9,22.7,153,22.8,153,23z"/>
	<path d="M153.6,24.5c0,0.1-0.1,0.3-0.3,0.3c-0.1,0-0.3-0.1-0.3-0.3c0-0.1,0.1-0.3,0.3-0.3C153.5,24.2,153.6,24.3,153.6,24.5z"/>
	<path d="M154.2,26c0,0.1-0.1,0.3-0.3,0.3c-0.1,0-0.3-0.1-0.3-0.3c0-0.1,0.1-0.3,0.3-0.3C154,25.7,154.2,25.9,154.2,26z"/>
	<path d="M154.6,27.6c0,0.1-0.1,0.3-0.3,0.3c-0.1,0-0.3-0.1-0.3-0.3c0-0.1,0.1-0.3,0.3-0.3C154.5,27.3,154.6,27.5,154.6,27.6z"/>
	<path d="M155,29.2c0,0.1-0.1,0.3-0.3,0.3s-0.3-0.1-0.3-0.3c0-0.1,0.1-0.3,0.3-0.3S155,29.1,155,29.2z"/>
	<path d="M155.2,30.7c0,0.1-0.1,0.3-0.3,0.3c-0.1,0-0.3-0.1-0.3-0.3c0-0.1,0.1-0.3,0.3-0.3C155.1,30.5,155.2,30.6,155.2,30.7z"/>
	<path d="M155.4,32.2c0,0.1-0.1,0.3-0.3,0.3c-0.1,0-0.3-0.1-0.3-0.3c0-0.1,0.1-0.3,0.3-0.3C155.2,31.9,155.4,32,155.4,32.2z"/>
	<path d="M155.4,33.7c0,0.1-0.1,0.3-0.3,0.3c-0.1,0-0.3-0.1-0.3-0.3c0-0.1,0.1-0.3,0.3-0.3C155.3,33.5,155.4,33.6,155.4,33.7z"/>
	<circle cx="155.2" cy="35.2" r="0.3"/>
	<circle cx="136" cy="58.8" r="0.3"/>
	<path d="M134,58.4c0-0.1,0.1-0.3,0.3-0.3c0.1,0,0.3,0.1,0.3,0.3c0,0.1-0.1,0.3-0.3,0.3C134.1,58.7,134,58.6,134,58.4z"/>
	<path d="M132.2,57.9c0-0.1,0.1-0.3,0.3-0.3s0.3,0.1,0.3,0.3c0,0.1-0.1,0.3-0.3,0.3S132.2,58,132.2,57.9z"/>
	<path d="M130.6,57.1c0-0.1,0.1-0.3,0.3-0.3c0.1,0,0.3,0.1,0.3,0.3c0,0.1-0.1,0.3-0.3,0.3C130.7,57.3,130.6,57.2,130.6,57.1z"/>
	<path d="M129.1,56.1c0-0.1,0.1-0.3,0.3-0.3c0.1,0,0.3,0.1,0.3,0.3s-0.1,0.3-0.3,0.3C129.3,56.3,129.1,56.2,129.1,56.1z"/>
	<path d="M127.7,54.9c0-0.1,0.1-0.3,0.3-0.3c0.1,0,0.3,0.1,0.3,0.3c0,0.1-0.1,0.3-0.3,0.3C127.8,55.2,127.7,55.1,127.7,54.9z"/>
	<path d="M126.5,53.7c0-0.1,0.1-0.3,0.3-0.3c0.1,0,0.3,0.1,0.3,0.3c0,0.1-0.1,0.3-0.3,0.3C126.6,53.9,126.5,53.8,126.5,53.7z"/>
	<path d="M125.3,52.3c0-0.1,0.1-0.3,0.3-0.3c0.1,0,0.3,0.1,0.3,0.3c0,0.1-0.1,0.3-0.3,0.3C125.4,52.5,125.3,52.4,125.3,52.3z"/>
	<path d="M124.3,50.8c0-0.1,0.1-0.3,0.3-0.3s0.3,0.1,0.3,0.3c0,0.1-0.1,0.3-0.3,0.3S124.3,51,124.3,50.8z"/>
	<path d="M123.3,49.2c0-0.1,0.1-0.3,0.3-0.3c0.1,0,0.3,0.1,0.3,0.3c0,0.1-0.1,0.3-0.3,0.3C123.4,49.5,123.3,49.4,123.3,49.2z"/>
	<path d="M122.5,47.5c0-0.1,0.1-0.3,0.3-0.3c0.1,0,0.3,0.1,0.3,0.3c0,0.1-0.1,0.3-0.3,0.3C122.6,47.8,122.5,47.7,122.5,47.5z"/>
	<path d="M121.9,46c0-0.1,0.1-0.3,0.3-0.3c0.1,0,0.3,0.1,0.3,0.3s-0.1,0.3-0.3,0.3C122,46.3,121.9,46.2,121.9,46z"/>
	<path d="M121.3,44.5c0-0.1,0.1-0.3,0.3-0.3c0.1,0,0.3,0.1,0.3,0.3c0,0.1-0.1,0.3-0.3,0.3C121.4,44.8,121.3,44.6,121.3,44.5z"/>
	<path d="M120.9,42.9c0-0.1,0.1-0.3,0.3-0.3c0.1,0,0.3,0.1,0.3,0.3c0,0.1-0.1,0.3-0.3,0.3C121,43.1,120.9,43,120.9,42.9z"/>
	<path d="M120.5,41.3c0-0.1,0.1-0.3,0.3-0.3c0.1,0,0.3,0.1,0.3,0.3s-0.1,0.3-0.3,0.3C120.6,41.6,120.5,41.4,120.5,41.3z"/>
	<path d="M120.3,39.8c0-0.1,0.1-0.3,0.3-0.3c0.1,0,0.3,0.1,0.3,0.3c0,0.1-0.1,0.3-0.3,0.3C120.4,40,120.3,39.9,120.3,39.8z"/>
	<path d="M120.1,38.3c0-0.1,0.1-0.3,0.3-0.3c0.1,0,0.3,0.1,0.3,0.3s-0.1,0.3-0.3,0.3C120.2,38.6,120.1,38.5,120.1,38.3z"/>
	<path d="M120,36.8c0-0.1,0.1-0.3,0.3-0.3c0.1,0,0.3,0.1,0.3,0.3c0,0.1-0.1,0.3-0.3,0.3C120.1,37,120,36.9,120,36.8z"/>
	<path d="M138,58.9c0-0.1-0.1-0.3-0.3-0.3c-0.1,0-0.3,0.1-0.3,0.3c0,0.1,0.1,0.3,0.3,0.3C137.9,59.2,138,59.1,138,58.9z"/>
	<circle cx="139.5" cy="58.8" r="0.3"/>
	<path d="M141.5,58.4c0-0.1-0.1-0.3-0.3-0.3s-0.3,0.1-0.3,0.3c0,0.1,0.1,0.3,0.3,0.3S141.5,58.6,141.5,58.4z"/>
	<path d="M143.2,57.9c0-0.1-0.1-0.3-0.3-0.3c-0.1,0-0.3,0.1-0.3,0.3c0,0.1,0.1,0.3,0.3,0.3C143.1,58.1,143.2,58,143.2,57.9z"/>
	<path d="M144.8,57.1c0-0.1-0.1-0.3-0.3-0.3s-0.3,0.1-0.3,0.3c0,0.1,0.1,0.3,0.3,0.3S144.8,57.2,144.8,57.1z"/>
	<path d="M146.3,56.1c0-0.1-0.1-0.3-0.3-0.3c-0.1,0-0.3,0.1-0.3,0.3s0.1,0.3,0.3,0.3C146.2,56.3,146.3,56.2,146.3,56.1z"/>
	<path d="M147.7,54.9c0-0.1-0.1-0.3-0.3-0.3c-0.1,0-0.3,0.1-0.3,0.3c0,0.1,0.1,0.3,0.3,0.3C147.6,55.2,147.7,55.1,147.7,54.9z"/>
	<path d="M149,53.7c0-0.1-0.1-0.3-0.3-0.3c-0.1,0-0.3,0.1-0.3,0.3c0,0.1,0.1,0.3,0.3,0.3C148.9,53.9,149,53.8,149,53.7z"/>
	<path d="M150.2,52.3c0-0.1-0.1-0.3-0.3-0.3c-0.1,0-0.3,0.1-0.3,0.3c0,0.1,0.1,0.3,0.3,0.3C150.1,52.5,150.2,52.4,150.2,52.3z"/>
	<path d="M151.2,50.8c0-0.1-0.1-0.3-0.3-0.3c-0.1,0-0.3,0.1-0.3,0.3c0,0.1,0.1,0.3,0.3,0.3C151,51.1,151.2,51,151.2,50.8z"/>
	<path d="M152.1,49.2c0-0.1-0.1-0.3-0.3-0.3c-0.1,0-0.3,0.1-0.3,0.3c0,0.1,0.1,0.3,0.3,0.3C152,49.5,152.1,49.4,152.1,49.2z"/>
	<path d="M153,47.5c0-0.1-0.1-0.3-0.3-0.3c-0.1,0-0.3,0.1-0.3,0.3c0,0.1,0.1,0.3,0.3,0.3C152.9,47.8,153,47.7,153,47.5z"/>
	<path d="M153.6,46c0-0.1-0.1-0.3-0.3-0.3c-0.1,0-0.3,0.1-0.3,0.3s0.1,0.3,0.3,0.3C153.5,46.3,153.6,46.2,153.6,46z"/>
	<path d="M154.2,44.5c0-0.1-0.1-0.3-0.3-0.3c-0.1,0-0.3,0.1-0.3,0.3c0,0.1,0.1,0.3,0.3,0.3C154,44.8,154.2,44.6,154.2,44.5z"/>
	<path d="M154.6,42.9c0-0.1-0.1-0.3-0.3-0.3c-0.1,0-0.3,0.1-0.3,0.3c0,0.1,0.1,0.3,0.3,0.3C154.5,43.1,154.6,43,154.6,42.9z"/>
	<path d="M155,41.3c0-0.1-0.1-0.3-0.3-0.3s-0.3,0.1-0.3,0.3s0.1,0.3,0.3,0.3S155,41.4,155,41.3z"/>
	<path d="M155.2,39.8c0-0.1-0.1-0.3-0.3-0.3c-0.1,0-0.3,0.1-0.3,0.3c0,0.1,0.1,0.3,0.3,0.3C155.1,40,155.2,39.9,155.2,39.8z"/>
	<path d="M155.4,38.3c0-0.1-0.1-0.3-0.3-0.3c-0.1,0-0.3,0.1-0.3,0.3s0.1,0.3,0.3,0.3C155.2,38.6,155.4,38.5,155.4,38.3z"/>
	<path d="M155.4,36.8c0-0.1-0.1-0.3-0.3-0.3c-0.1,0-0.3,0.1-0.3,0.3c0,0.1,0.1,0.3,0.3,0.3C155.3,37,155.4,36.9,155.4,36.8z"/>
	<path d="M147.8,44.1c0,0-0.5-0.9-1.6-1.2c0,0-2.4-1-4.3-4.2c0,0-2.2-3.8-2.4-4.7c0,0,4.1-11.3,4.4-14c0,0,0-0.2-0.1-0.3
		c0,0-0.2-0.1-0.3,0.2c0,0-4.4,9.8-5.1,11.7l-5.1-11.7c0,0-0.1-0.3-0.3-0.2c0,0-0.2,0.1-0.1,0.4c0,0,4,12.9,4.3,13.9
		c0,0-1.3,3.4-1.4,3.8c0,0-0.2,1.4-2.7,3.5c0,0-0.2,1.9-0.8,2.3c0,0-2.3,1-3,2.6c0,0-0.8,1.6,0.4,3.1c0,0-0.1,1.2-1.3,2.1
		c0,0-0.3,0.2-0.1,0.4c0,0,0.2,0.3,0.6,0.4c0,0,0.3,0.1,0.4-0.4c0,0,0.4-1.7,1-2.2c0,0,2.2,0.7,3.2-1.4c0,0,0.6-1.1,0-3.7
		c0,0-0.2-1.2,0.9-3.1c0,0,1.5-2.3,3.9-4c0,0,4,2.4,5,5.1c0,0,0.2,0.9-0.2,2.6c0,0-0.2,1.4,0.7,2.3c0,0,1.5,1.6,3.4,0.2
		C147.3,47.6,149.2,46.2,147.8,44.1z M133.1,48c-0.5,1.1-1.6,1.6-2.6,1.1c-0.9-0.4-1.3-1.6-0.8-2.7c0.5-1.1,1.6-1.6,2.6-1.1
		C133.2,45.7,133.6,46.9,133.1,48z M146.5,47.5c-1,0.4-2.2-0.1-2.7-1.1c-0.5-1.1,0-2.3,1-2.7c1-0.4,2.2,0.1,2.7,1.1
		C148,45.8,147.5,47.1,146.5,47.5z"/>
	<path class="st0" d="M138.7,34.3c0-0.2-0.2-0.4-0.4-0.4c-0.1,0-0.2,0-0.2,0.1l0.5,0.5C138.6,34.5,138.7,34.4,138.7,34.3z"/>
	<path class="st0" d="M138,34.3c0,0.2,0.2,0.4,0.4,0.4c0.1,0,0.2,0,0.2-0.1l-0.5-0.5C138,34.2,138,34.3,138,34.3z"/>
</g>
</svg>
